<mxfile host="app.diagrams.net" modified="2024-04-19T10:39:57.665Z" agent="Mozilla/5.0 (Windows NT 10.0; Win64; x64) AppleWebKit/537.36 (KHTML, like Gecko) Chrome/123.0.0.0 Safari/537.36 Edg/123.0.0.0" etag="UzzfrJFLwrt4gM9tw0sS" version="24.2.5" type="github">
  <diagram id="C5RBs43oDa-KdzZeNtuy" name="Page-1">
    <mxGraphModel dx="1878" dy="785" grid="1" gridSize="10" guides="1" tooltips="1" connect="1" arrows="1" fold="1" page="1" pageScale="1" pageWidth="827" pageHeight="1169" math="0" shadow="0">
      <root>
        <mxCell id="WIyWlLk6GJQsqaUBKTNV-0" />
        <mxCell id="WIyWlLk6GJQsqaUBKTNV-1" parent="WIyWlLk6GJQsqaUBKTNV-0" />
        <mxCell id="WIyWlLk6GJQsqaUBKTNV-2" value="" style="rounded=0;html=1;jettySize=auto;orthogonalLoop=1;fontSize=11;endArrow=block;endFill=0;endSize=8;strokeWidth=1;shadow=0;labelBackgroundColor=none;edgeStyle=orthogonalEdgeStyle;" parent="WIyWlLk6GJQsqaUBKTNV-1" source="WIyWlLk6GJQsqaUBKTNV-3" target="WIyWlLk6GJQsqaUBKTNV-7" edge="1">
          <mxGeometry relative="1" as="geometry">
            <mxPoint x="220" y="170" as="targetPoint" />
          </mxGeometry>
        </mxCell>
        <mxCell id="WIyWlLk6GJQsqaUBKTNV-3" value="main()程序" style="rounded=1;whiteSpace=wrap;html=1;fontSize=12;glass=0;strokeWidth=1;shadow=0;" parent="WIyWlLk6GJQsqaUBKTNV-1" vertex="1">
          <mxGeometry x="30" y="50" width="120" height="40" as="geometry" />
        </mxCell>
        <mxCell id="WIyWlLk6GJQsqaUBKTNV-7" value="控制函数Run()" style="rounded=1;whiteSpace=wrap;html=1;fontSize=12;glass=0;strokeWidth=1;shadow=0;" parent="WIyWlLk6GJQsqaUBKTNV-1" vertex="1">
          <mxGeometry x="190" y="50" width="120" height="40" as="geometry" />
        </mxCell>
        <mxCell id="-WmeRdPS12so6M__PIqW-0" value="调用GetInput()函数获取用户输入" style="rounded=1;whiteSpace=wrap;html=1;" vertex="1" parent="WIyWlLk6GJQsqaUBKTNV-1">
          <mxGeometry x="370" y="50" width="110" height="40" as="geometry" />
        </mxCell>
        <mxCell id="-WmeRdPS12so6M__PIqW-2" value="" style="endArrow=classic;html=1;rounded=0;exitX=1;exitY=0.5;exitDx=0;exitDy=0;entryX=0;entryY=0.5;entryDx=0;entryDy=0;" edge="1" parent="WIyWlLk6GJQsqaUBKTNV-1" source="WIyWlLk6GJQsqaUBKTNV-7" target="-WmeRdPS12so6M__PIqW-0">
          <mxGeometry width="50" height="50" relative="1" as="geometry">
            <mxPoint x="390" y="410" as="sourcePoint" />
            <mxPoint x="440" y="360" as="targetPoint" />
          </mxGeometry>
        </mxCell>
        <mxCell id="-WmeRdPS12so6M__PIqW-30" style="edgeStyle=orthogonalEdgeStyle;rounded=0;orthogonalLoop=1;jettySize=auto;html=1;entryX=0.5;entryY=0;entryDx=0;entryDy=0;" edge="1" parent="WIyWlLk6GJQsqaUBKTNV-1" source="-WmeRdPS12so6M__PIqW-3" target="-WmeRdPS12so6M__PIqW-15">
          <mxGeometry relative="1" as="geometry">
            <mxPoint x="260" y="190" as="targetPoint" />
          </mxGeometry>
        </mxCell>
        <mxCell id="-WmeRdPS12so6M__PIqW-55" value="" style="edgeStyle=orthogonalEdgeStyle;rounded=0;orthogonalLoop=1;jettySize=auto;html=1;" edge="1" parent="WIyWlLk6GJQsqaUBKTNV-1" source="-WmeRdPS12so6M__PIqW-3" target="-WmeRdPS12so6M__PIqW-54">
          <mxGeometry relative="1" as="geometry">
            <Array as="points">
              <mxPoint x="750" y="130" />
              <mxPoint x="750" y="770" />
            </Array>
          </mxGeometry>
        </mxCell>
        <mxCell id="-WmeRdPS12so6M__PIqW-3" value="遍历用户的输入" style="rounded=1;whiteSpace=wrap;html=1;" vertex="1" parent="WIyWlLk6GJQsqaUBKTNV-1">
          <mxGeometry x="200" y="110" width="120" height="40" as="geometry" />
        </mxCell>
        <mxCell id="-WmeRdPS12so6M__PIqW-4" value="" style="endArrow=classic;html=1;rounded=0;entryX=1;entryY=0.5;entryDx=0;entryDy=0;exitX=0.25;exitY=1;exitDx=0;exitDy=0;" edge="1" parent="WIyWlLk6GJQsqaUBKTNV-1" source="-WmeRdPS12so6M__PIqW-0" target="-WmeRdPS12so6M__PIqW-3">
          <mxGeometry width="50" height="50" relative="1" as="geometry">
            <mxPoint x="390" y="410" as="sourcePoint" />
            <mxPoint x="440" y="360" as="targetPoint" />
          </mxGeometry>
        </mxCell>
        <mxCell id="-WmeRdPS12so6M__PIqW-17" style="edgeStyle=orthogonalEdgeStyle;rounded=0;orthogonalLoop=1;jettySize=auto;html=1;exitX=0.5;exitY=1;exitDx=0;exitDy=0;entryX=0.5;entryY=0;entryDx=0;entryDy=0;" edge="1" parent="WIyWlLk6GJQsqaUBKTNV-1" source="-WmeRdPS12so6M__PIqW-6" target="-WmeRdPS12so6M__PIqW-9">
          <mxGeometry relative="1" as="geometry" />
        </mxCell>
        <mxCell id="-WmeRdPS12so6M__PIqW-32" style="edgeStyle=orthogonalEdgeStyle;rounded=0;orthogonalLoop=1;jettySize=auto;html=1;exitX=1;exitY=0.5;exitDx=0;exitDy=0;entryX=0;entryY=0.5;entryDx=0;entryDy=0;" edge="1" parent="WIyWlLk6GJQsqaUBKTNV-1" source="-WmeRdPS12so6M__PIqW-6" target="-WmeRdPS12so6M__PIqW-22">
          <mxGeometry relative="1" as="geometry" />
        </mxCell>
        <mxCell id="-WmeRdPS12so6M__PIqW-6" value="是&#39;]&#39;" style="rhombus;whiteSpace=wrap;html=1;" vertex="1" parent="WIyWlLk6GJQsqaUBKTNV-1">
          <mxGeometry x="220" y="260" width="80" height="40" as="geometry" />
        </mxCell>
        <mxCell id="-WmeRdPS12so6M__PIqW-7" style="edgeStyle=orthogonalEdgeStyle;rounded=0;orthogonalLoop=1;jettySize=auto;html=1;exitX=0.5;exitY=1;exitDx=0;exitDy=0;" edge="1" parent="WIyWlLk6GJQsqaUBKTNV-1" source="-WmeRdPS12so6M__PIqW-6" target="-WmeRdPS12so6M__PIqW-6">
          <mxGeometry relative="1" as="geometry" />
        </mxCell>
        <mxCell id="-WmeRdPS12so6M__PIqW-8" style="edgeStyle=orthogonalEdgeStyle;rounded=0;orthogonalLoop=1;jettySize=auto;html=1;exitX=0.5;exitY=1;exitDx=0;exitDy=0;" edge="1" parent="WIyWlLk6GJQsqaUBKTNV-1" source="-WmeRdPS12so6M__PIqW-6" target="-WmeRdPS12so6M__PIqW-6">
          <mxGeometry relative="1" as="geometry" />
        </mxCell>
        <mxCell id="-WmeRdPS12so6M__PIqW-18" style="edgeStyle=orthogonalEdgeStyle;rounded=0;orthogonalLoop=1;jettySize=auto;html=1;exitX=0.5;exitY=1;exitDx=0;exitDy=0;entryX=0.5;entryY=0;entryDx=0;entryDy=0;" edge="1" parent="WIyWlLk6GJQsqaUBKTNV-1" source="-WmeRdPS12so6M__PIqW-9" target="-WmeRdPS12so6M__PIqW-10">
          <mxGeometry relative="1" as="geometry" />
        </mxCell>
        <mxCell id="-WmeRdPS12so6M__PIqW-33" style="edgeStyle=orthogonalEdgeStyle;rounded=0;orthogonalLoop=1;jettySize=auto;html=1;entryX=0;entryY=0.5;entryDx=0;entryDy=0;" edge="1" parent="WIyWlLk6GJQsqaUBKTNV-1" source="-WmeRdPS12so6M__PIqW-9" target="-WmeRdPS12so6M__PIqW-23">
          <mxGeometry relative="1" as="geometry" />
        </mxCell>
        <mxCell id="-WmeRdPS12so6M__PIqW-9" value="是&#39;{&#39;" style="rhombus;whiteSpace=wrap;html=1;" vertex="1" parent="WIyWlLk6GJQsqaUBKTNV-1">
          <mxGeometry x="220" y="320" width="80" height="40" as="geometry" />
        </mxCell>
        <mxCell id="-WmeRdPS12so6M__PIqW-19" style="edgeStyle=orthogonalEdgeStyle;rounded=0;orthogonalLoop=1;jettySize=auto;html=1;exitX=0.5;exitY=1;exitDx=0;exitDy=0;entryX=0.5;entryY=0;entryDx=0;entryDy=0;" edge="1" parent="WIyWlLk6GJQsqaUBKTNV-1" source="-WmeRdPS12so6M__PIqW-10" target="-WmeRdPS12so6M__PIqW-11">
          <mxGeometry relative="1" as="geometry" />
        </mxCell>
        <mxCell id="-WmeRdPS12so6M__PIqW-34" style="edgeStyle=orthogonalEdgeStyle;rounded=0;orthogonalLoop=1;jettySize=auto;html=1;entryX=0;entryY=0.5;entryDx=0;entryDy=0;" edge="1" parent="WIyWlLk6GJQsqaUBKTNV-1" source="-WmeRdPS12so6M__PIqW-10" target="-WmeRdPS12so6M__PIqW-24">
          <mxGeometry relative="1" as="geometry" />
        </mxCell>
        <mxCell id="-WmeRdPS12so6M__PIqW-10" value="是&#39;}&#39;" style="rhombus;whiteSpace=wrap;html=1;" vertex="1" parent="WIyWlLk6GJQsqaUBKTNV-1">
          <mxGeometry x="220" y="380" width="80" height="40" as="geometry" />
        </mxCell>
        <mxCell id="-WmeRdPS12so6M__PIqW-20" style="edgeStyle=orthogonalEdgeStyle;rounded=0;orthogonalLoop=1;jettySize=auto;html=1;exitX=0.5;exitY=1;exitDx=0;exitDy=0;entryX=0.5;entryY=0;entryDx=0;entryDy=0;" edge="1" parent="WIyWlLk6GJQsqaUBKTNV-1" source="-WmeRdPS12so6M__PIqW-11" target="-WmeRdPS12so6M__PIqW-13">
          <mxGeometry relative="1" as="geometry" />
        </mxCell>
        <mxCell id="-WmeRdPS12so6M__PIqW-35" style="edgeStyle=orthogonalEdgeStyle;rounded=0;orthogonalLoop=1;jettySize=auto;html=1;" edge="1" parent="WIyWlLk6GJQsqaUBKTNV-1" source="-WmeRdPS12so6M__PIqW-11" target="-WmeRdPS12so6M__PIqW-25">
          <mxGeometry relative="1" as="geometry" />
        </mxCell>
        <mxCell id="-WmeRdPS12so6M__PIqW-11" value="是&#39;=&#39;" style="rhombus;whiteSpace=wrap;html=1;" vertex="1" parent="WIyWlLk6GJQsqaUBKTNV-1">
          <mxGeometry x="220" y="440" width="80" height="40" as="geometry" />
        </mxCell>
        <mxCell id="-WmeRdPS12so6M__PIqW-28" value="" style="edgeStyle=orthogonalEdgeStyle;rounded=0;orthogonalLoop=1;jettySize=auto;html=1;" edge="1" parent="WIyWlLk6GJQsqaUBKTNV-1" source="-WmeRdPS12so6M__PIqW-13" target="-WmeRdPS12so6M__PIqW-27">
          <mxGeometry relative="1" as="geometry" />
        </mxCell>
        <mxCell id="-WmeRdPS12so6M__PIqW-36" style="edgeStyle=orthogonalEdgeStyle;rounded=0;orthogonalLoop=1;jettySize=auto;html=1;" edge="1" parent="WIyWlLk6GJQsqaUBKTNV-1" source="-WmeRdPS12so6M__PIqW-13" target="-WmeRdPS12so6M__PIqW-26">
          <mxGeometry relative="1" as="geometry" />
        </mxCell>
        <mxCell id="-WmeRdPS12so6M__PIqW-13" value="是&#39;-&#39;" style="rhombus;whiteSpace=wrap;html=1;" vertex="1" parent="WIyWlLk6GJQsqaUBKTNV-1">
          <mxGeometry x="220" y="500" width="80" height="40" as="geometry" />
        </mxCell>
        <mxCell id="-WmeRdPS12so6M__PIqW-16" style="edgeStyle=orthogonalEdgeStyle;rounded=0;orthogonalLoop=1;jettySize=auto;html=1;" edge="1" parent="WIyWlLk6GJQsqaUBKTNV-1" source="-WmeRdPS12so6M__PIqW-15" target="-WmeRdPS12so6M__PIqW-6">
          <mxGeometry relative="1" as="geometry" />
        </mxCell>
        <mxCell id="-WmeRdPS12so6M__PIqW-31" style="edgeStyle=orthogonalEdgeStyle;rounded=0;orthogonalLoop=1;jettySize=auto;html=1;exitX=1;exitY=0.5;exitDx=0;exitDy=0;entryX=0;entryY=0.5;entryDx=0;entryDy=0;" edge="1" parent="WIyWlLk6GJQsqaUBKTNV-1" source="-WmeRdPS12so6M__PIqW-15" target="-WmeRdPS12so6M__PIqW-21">
          <mxGeometry relative="1" as="geometry" />
        </mxCell>
        <mxCell id="-WmeRdPS12so6M__PIqW-15" value="是&#39;[&#39;" style="rhombus;whiteSpace=wrap;html=1;" vertex="1" parent="WIyWlLk6GJQsqaUBKTNV-1">
          <mxGeometry x="220" y="200" width="80" height="40" as="geometry" />
        </mxCell>
        <mxCell id="-WmeRdPS12so6M__PIqW-45" value="11" style="edgeStyle=orthogonalEdgeStyle;rounded=0;orthogonalLoop=1;jettySize=auto;html=1;exitX=1;exitY=0.5;exitDx=0;exitDy=0;entryX=0;entryY=0.5;entryDx=0;entryDy=0;" edge="1" parent="WIyWlLk6GJQsqaUBKTNV-1" source="-WmeRdPS12so6M__PIqW-21" target="-WmeRdPS12so6M__PIqW-3">
          <mxGeometry relative="1" as="geometry">
            <Array as="points">
              <mxPoint x="690" y="220" />
              <mxPoint x="690" y="720" />
              <mxPoint x="100" y="720" />
              <mxPoint x="100" y="130" />
            </Array>
          </mxGeometry>
        </mxCell>
        <mxCell id="-WmeRdPS12so6M__PIqW-21" value="&lt;span style=&quot;font-size:12.0pt;font-family:华文宋体;&lt;br/&gt;mso-bidi-font-family:宋体;mso-font-kerning:0pt;mso-ansi-language:EN-US;&lt;br/&gt;mso-fareast-language:ZH-CN;mso-bidi-language:AR-SA&quot;&gt;使指针&lt;span lang=&quot;EN-US&quot;&gt;p&lt;/span&gt;等于头节点&lt;span lang=&quot;EN-US&quot;&gt;L&lt;/span&gt;&lt;/span&gt;" style="rounded=1;whiteSpace=wrap;html=1;" vertex="1" parent="WIyWlLk6GJQsqaUBKTNV-1">
          <mxGeometry x="370" y="200" width="160" height="40" as="geometry" />
        </mxCell>
        <mxCell id="-WmeRdPS12so6M__PIqW-47" style="edgeStyle=orthogonalEdgeStyle;rounded=0;orthogonalLoop=1;jettySize=auto;html=1;" edge="1" parent="WIyWlLk6GJQsqaUBKTNV-1" source="-WmeRdPS12so6M__PIqW-22">
          <mxGeometry relative="1" as="geometry">
            <mxPoint x="690" y="280" as="targetPoint" />
          </mxGeometry>
        </mxCell>
        <mxCell id="-WmeRdPS12so6M__PIqW-22" value="&lt;span style=&quot;font-size:12.0pt;font-family:&lt;br/&gt;华文宋体;mso-bidi-font-family:宋体;mso-font-kerning:0pt;mso-ansi-language:EN-US;&lt;br/&gt;mso-fareast-language:ZH-CN;mso-bidi-language:AR-SA&quot; lang=&quot;EN-US&quot;&gt;End( )&lt;/span&gt;" style="rounded=1;whiteSpace=wrap;html=1;" vertex="1" parent="WIyWlLk6GJQsqaUBKTNV-1">
          <mxGeometry x="370" y="260" width="160" height="40" as="geometry" />
        </mxCell>
        <mxCell id="-WmeRdPS12so6M__PIqW-48" style="edgeStyle=orthogonalEdgeStyle;rounded=0;orthogonalLoop=1;jettySize=auto;html=1;exitX=1;exitY=0.5;exitDx=0;exitDy=0;" edge="1" parent="WIyWlLk6GJQsqaUBKTNV-1" source="-WmeRdPS12so6M__PIqW-23">
          <mxGeometry relative="1" as="geometry">
            <mxPoint x="690" y="340" as="targetPoint" />
          </mxGeometry>
        </mxCell>
        <mxCell id="-WmeRdPS12so6M__PIqW-23" value="&lt;span style=&quot;font-size:12.0pt;font-family:&lt;br/&gt;华文宋体;mso-bidi-font-family:宋体;mso-font-kerning:0pt;mso-ansi-language:EN-US;&lt;br/&gt;mso-fareast-language:ZH-CN;mso-bidi-language:AR-SA&quot; lang=&quot;EN-US&quot;&gt;left()&lt;/span&gt;" style="rounded=1;whiteSpace=wrap;html=1;" vertex="1" parent="WIyWlLk6GJQsqaUBKTNV-1">
          <mxGeometry x="370" y="320" width="160" height="40" as="geometry" />
        </mxCell>
        <mxCell id="-WmeRdPS12so6M__PIqW-49" style="edgeStyle=orthogonalEdgeStyle;rounded=0;orthogonalLoop=1;jettySize=auto;html=1;" edge="1" parent="WIyWlLk6GJQsqaUBKTNV-1" source="-WmeRdPS12so6M__PIqW-24">
          <mxGeometry relative="1" as="geometry">
            <mxPoint x="690" y="400" as="targetPoint" />
          </mxGeometry>
        </mxCell>
        <mxCell id="-WmeRdPS12so6M__PIqW-24" value="&lt;span style=&quot;font-size:12.0pt;font-family:&lt;br/&gt;华文宋体;mso-bidi-font-family:宋体;mso-font-kerning:0pt;mso-ansi-language:EN-US;&lt;br/&gt;mso-fareast-language:ZH-CN;mso-bidi-language:AR-SA&quot; lang=&quot;EN-US&quot;&gt;Right( )&lt;/span&gt;" style="rounded=1;whiteSpace=wrap;html=1;" vertex="1" parent="WIyWlLk6GJQsqaUBKTNV-1">
          <mxGeometry x="370" y="380" width="160" height="40" as="geometry" />
        </mxCell>
        <mxCell id="-WmeRdPS12so6M__PIqW-50" style="edgeStyle=orthogonalEdgeStyle;rounded=0;orthogonalLoop=1;jettySize=auto;html=1;" edge="1" parent="WIyWlLk6GJQsqaUBKTNV-1" source="-WmeRdPS12so6M__PIqW-25">
          <mxGeometry relative="1" as="geometry">
            <mxPoint x="690" y="460" as="targetPoint" />
          </mxGeometry>
        </mxCell>
        <mxCell id="-WmeRdPS12so6M__PIqW-25" value="&lt;span style=&quot;font-size:12.0pt;font-family:&lt;br/&gt;华文宋体;mso-bidi-font-family:宋体;mso-font-kerning:0pt;mso-ansi-language:EN-US;&lt;br/&gt;mso-fareast-language:ZH-CN;mso-bidi-language:AR-SA&quot; lang=&quot;EN-US&quot;&gt;Backspace( )&lt;/span&gt;" style="rounded=1;whiteSpace=wrap;html=1;" vertex="1" parent="WIyWlLk6GJQsqaUBKTNV-1">
          <mxGeometry x="370" y="440" width="160" height="40" as="geometry" />
        </mxCell>
        <mxCell id="-WmeRdPS12so6M__PIqW-51" style="edgeStyle=orthogonalEdgeStyle;rounded=0;orthogonalLoop=1;jettySize=auto;html=1;" edge="1" parent="WIyWlLk6GJQsqaUBKTNV-1" source="-WmeRdPS12so6M__PIqW-26">
          <mxGeometry relative="1" as="geometry">
            <mxPoint x="690" y="520" as="targetPoint" />
          </mxGeometry>
        </mxCell>
        <mxCell id="-WmeRdPS12so6M__PIqW-26" value="&lt;span style=&quot;font-size: 17px; font-family: 华文宋体;&quot;&gt;改变&lt;span lang=&quot;EN-US&quot;&gt;flag_insert&lt;/span&gt;&lt;/span&gt;" style="rounded=1;whiteSpace=wrap;html=1;" vertex="1" parent="WIyWlLk6GJQsqaUBKTNV-1">
          <mxGeometry x="370" y="500" width="160" height="40" as="geometry" />
        </mxCell>
        <mxCell id="-WmeRdPS12so6M__PIqW-41" style="edgeStyle=orthogonalEdgeStyle;rounded=0;orthogonalLoop=1;jettySize=auto;html=1;entryX=0;entryY=0.5;entryDx=0;entryDy=0;" edge="1" parent="WIyWlLk6GJQsqaUBKTNV-1" source="-WmeRdPS12so6M__PIqW-27" target="-WmeRdPS12so6M__PIqW-40">
          <mxGeometry relative="1" as="geometry" />
        </mxCell>
        <mxCell id="-WmeRdPS12so6M__PIqW-44" style="edgeStyle=orthogonalEdgeStyle;rounded=0;orthogonalLoop=1;jettySize=auto;html=1;exitX=0.5;exitY=1;exitDx=0;exitDy=0;entryX=0;entryY=0.5;entryDx=0;entryDy=0;" edge="1" parent="WIyWlLk6GJQsqaUBKTNV-1" source="-WmeRdPS12so6M__PIqW-27" target="-WmeRdPS12so6M__PIqW-42">
          <mxGeometry relative="1" as="geometry" />
        </mxCell>
        <mxCell id="-WmeRdPS12so6M__PIqW-27" value="输入状态" style="rhombus;whiteSpace=wrap;html=1;" vertex="1" parent="WIyWlLk6GJQsqaUBKTNV-1">
          <mxGeometry x="200" y="565" width="120" height="55" as="geometry" />
        </mxCell>
        <mxCell id="-WmeRdPS12so6M__PIqW-52" style="edgeStyle=orthogonalEdgeStyle;rounded=0;orthogonalLoop=1;jettySize=auto;html=1;" edge="1" parent="WIyWlLk6GJQsqaUBKTNV-1" source="-WmeRdPS12so6M__PIqW-40">
          <mxGeometry relative="1" as="geometry">
            <mxPoint x="690" y="592.5" as="targetPoint" />
          </mxGeometry>
        </mxCell>
        <mxCell id="-WmeRdPS12so6M__PIqW-40" value="&lt;span style=&quot;font-size:12.0pt;font-family:&lt;br/&gt;华文宋体;mso-bidi-font-family:宋体;mso-font-kerning:0pt;mso-ansi-language:EN-US;&lt;br/&gt;mso-fareast-language:ZH-CN;mso-bidi-language:AR-SA&quot; lang=&quot;EN-US&quot;&gt;Add()&lt;/span&gt;" style="rounded=1;whiteSpace=wrap;html=1;" vertex="1" parent="WIyWlLk6GJQsqaUBKTNV-1">
          <mxGeometry x="370" y="572.5" width="160" height="40" as="geometry" />
        </mxCell>
        <mxCell id="-WmeRdPS12so6M__PIqW-53" style="edgeStyle=orthogonalEdgeStyle;rounded=0;orthogonalLoop=1;jettySize=auto;html=1;" edge="1" parent="WIyWlLk6GJQsqaUBKTNV-1" source="-WmeRdPS12so6M__PIqW-42">
          <mxGeometry relative="1" as="geometry">
            <mxPoint x="690" y="650" as="targetPoint" />
          </mxGeometry>
        </mxCell>
        <mxCell id="-WmeRdPS12so6M__PIqW-42" value="&lt;span style=&quot;font-size:12.0pt;font-family:&lt;br/&gt;华文宋体;mso-bidi-font-family:宋体;mso-font-kerning:0pt;mso-ansi-language:EN-US;&lt;br/&gt;mso-fareast-language:ZH-CN;mso-bidi-language:AR-SA&quot; lang=&quot;EN-US&quot;&gt;Replace()&lt;/span&gt;" style="rounded=1;whiteSpace=wrap;html=1;" vertex="1" parent="WIyWlLk6GJQsqaUBKTNV-1">
          <mxGeometry x="370" y="630" width="160" height="40" as="geometry" />
        </mxCell>
        <mxCell id="-WmeRdPS12so6M__PIqW-54" value="&lt;font style=&quot;font-size: 15px;&quot;&gt;Print()函数遍历输出链表&lt;/font&gt;" style="whiteSpace=wrap;html=1;rounded=1;" vertex="1" parent="WIyWlLk6GJQsqaUBKTNV-1">
          <mxGeometry x="320" y="740" width="190" height="70" as="geometry" />
        </mxCell>
        <mxCell id="-WmeRdPS12so6M__PIqW-59" style="edgeStyle=orthogonalEdgeStyle;rounded=0;orthogonalLoop=1;jettySize=auto;html=1;entryX=0.192;entryY=0.95;entryDx=0;entryDy=0;entryPerimeter=0;" edge="1" parent="WIyWlLk6GJQsqaUBKTNV-1" source="-WmeRdPS12so6M__PIqW-54" target="WIyWlLk6GJQsqaUBKTNV-3">
          <mxGeometry relative="1" as="geometry" />
        </mxCell>
      </root>
    </mxGraphModel>
  </diagram>
</mxfile>
